<mxfile host="app.diagrams.net" modified="2022-12-02T11:45:46.232Z" agent="5.0 (Windows NT 10.0; Win64; x64) AppleWebKit/537.36 (KHTML, like Gecko) Chrome/107.0.0.0 Safari/537.36" etag="5gHRFryy5ph2r-jOHzre" version="20.6.0" type="github">
  <diagram id="32il7ei118LAhM0YXetT" name="Page-1">
    <mxGraphModel dx="1520" dy="677" grid="1" gridSize="10" guides="1" tooltips="1" connect="1" arrows="1" fold="1" page="1" pageScale="1" pageWidth="827" pageHeight="1169" background="#F1FAEE" math="0" shadow="1">
      <root>
        <mxCell id="0" />
        <mxCell id="1" parent="0" />
        <mxCell id="OwPhHRN2L67oZQZMtts4-5" value="&lt;div&gt;Professeur&lt;/div&gt;&lt;div&gt;&lt;br&gt;&lt;/div&gt;" style="shape=umlActor;verticalLabelPosition=bottom;verticalAlign=top;html=1;fontFamily=Tahoma;rounded=1;fillColor=#A8DADC;strokeColor=#457B9D;fontColor=#1D3557;" parent="1" vertex="1">
          <mxGeometry x="120" y="630" width="30" height="60" as="geometry" />
        </mxCell>
        <mxCell id="OwPhHRN2L67oZQZMtts4-6" value="Tableau de bord" style="swimlane;fontFamily=Tahoma;rounded=1;fillColor=#A8DADC;strokeColor=#457B9D;fontColor=#1D3557;" parent="1" vertex="1">
          <mxGeometry x="200" y="330" width="730" height="1020" as="geometry">
            <mxRectangle x="190" y="220" width="90" height="30" as="alternateBounds" />
          </mxGeometry>
        </mxCell>
        <mxCell id="OwPhHRN2L67oZQZMtts4-7" value="Messagerie" style="swimlane;startSize=23;fontFamily=Tahoma;rounded=1;fillColor=#A8DADC;strokeColor=#457B9D;fontColor=#1D3557;" parent="OwPhHRN2L67oZQZMtts4-6" vertex="1">
          <mxGeometry x="50" y="50" width="620" height="250" as="geometry" />
        </mxCell>
        <mxCell id="OwPhHRN2L67oZQZMtts4-8" value="Envoyer message" style="ellipse;whiteSpace=wrap;html=1;fontFamily=Tahoma;rounded=1;fillColor=#A8DADC;strokeColor=#457B9D;fontColor=#1D3557;" parent="OwPhHRN2L67oZQZMtts4-7" vertex="1">
          <mxGeometry x="70" y="40" width="140" height="70" as="geometry" />
        </mxCell>
        <mxCell id="OwPhHRN2L67oZQZMtts4-9" value="&lt;div&gt;Lire message&lt;/div&gt;" style="ellipse;whiteSpace=wrap;html=1;rounded=1;fillColor=#A8DADC;strokeColor=#457B9D;fontColor=#1D3557;" parent="OwPhHRN2L67oZQZMtts4-7" vertex="1">
          <mxGeometry x="70" y="140" width="140" height="70" as="geometry" />
        </mxCell>
        <mxCell id="OwPhHRN2L67oZQZMtts4-13" value="Billets" style="swimlane;fontFamily=Tahoma;rounded=1;fillColor=#A8DADC;strokeColor=#457B9D;fontColor=#1D3557;" parent="OwPhHRN2L67oZQZMtts4-6" vertex="1">
          <mxGeometry x="42" y="380" width="620" height="150" as="geometry" />
        </mxCell>
        <mxCell id="OwPhHRN2L67oZQZMtts4-14" value="&lt;div&gt;Consulter les billets&lt;/div&gt;" style="ellipse;whiteSpace=wrap;html=1;fontFamily=Tahoma;rounded=1;fillColor=#A8DADC;strokeColor=#457B9D;fontColor=#1D3557;" parent="OwPhHRN2L67oZQZMtts4-13" vertex="1">
          <mxGeometry x="240" y="50" width="140" height="70" as="geometry" />
        </mxCell>
        <mxCell id="OwPhHRN2L67oZQZMtts4-18" value="Emploi du temps" style="swimlane;fontFamily=Tahoma;rounded=1;fillColor=#A8DADC;strokeColor=#457B9D;fontColor=#1D3557;" parent="OwPhHRN2L67oZQZMtts4-6" vertex="1">
          <mxGeometry x="50" y="740" width="620" height="200" as="geometry" />
        </mxCell>
        <mxCell id="OwPhHRN2L67oZQZMtts4-30" value="Voir classe" style="ellipse;whiteSpace=wrap;html=1;fontFamily=Tahoma;rounded=1;fillColor=#A8DADC;strokeColor=#457B9D;fontColor=#1D3557;" parent="OwPhHRN2L67oZQZMtts4-18" vertex="1">
          <mxGeometry x="70" y="40" width="120" height="60" as="geometry" />
        </mxCell>
        <mxCell id="OwPhHRN2L67oZQZMtts4-34" value="voire ses cours" style="ellipse;whiteSpace=wrap;html=1;fontFamily=Tahoma;rounded=1;fillColor=#A8DADC;strokeColor=#457B9D;fontColor=#1D3557;" parent="OwPhHRN2L67oZQZMtts4-18" vertex="1">
          <mxGeometry x="320" y="50" width="120" height="60" as="geometry" />
        </mxCell>
        <mxCell id="OwPhHRN2L67oZQZMtts4-21" value="" style="endArrow=none;html=1;rounded=1;labelBackgroundColor=#F1FAEE;strokeColor=#457B9D;fontColor=#1D3557;" parent="1" source="OwPhHRN2L67oZQZMtts4-5" target="OwPhHRN2L67oZQZMtts4-8" edge="1">
          <mxGeometry width="50" height="50" relative="1" as="geometry">
            <mxPoint x="570" y="690" as="sourcePoint" />
            <mxPoint x="620" y="640" as="targetPoint" />
          </mxGeometry>
        </mxCell>
        <mxCell id="OwPhHRN2L67oZQZMtts4-22" value="" style="endArrow=none;html=1;rounded=1;labelBackgroundColor=#F1FAEE;strokeColor=#457B9D;fontColor=#1D3557;" parent="1" source="OwPhHRN2L67oZQZMtts4-5" target="OwPhHRN2L67oZQZMtts4-9" edge="1">
          <mxGeometry width="50" height="50" relative="1" as="geometry">
            <mxPoint x="190" y="529.1713069188166" as="sourcePoint" />
            <mxPoint x="380.3823972090904" y="518.6534018957329" as="targetPoint" />
          </mxGeometry>
        </mxCell>
        <mxCell id="OwPhHRN2L67oZQZMtts4-26" value="" style="endArrow=none;html=1;rounded=1;labelBackgroundColor=#F1FAEE;strokeColor=#457B9D;fontColor=#1D3557;" parent="1" source="OwPhHRN2L67oZQZMtts4-5" target="OwPhHRN2L67oZQZMtts4-14" edge="1">
          <mxGeometry width="50" height="50" relative="1" as="geometry">
            <mxPoint x="155.15070279926613" y="700" as="sourcePoint" />
            <mxPoint x="358.3304777936048" y="1300.4897759661405" as="targetPoint" />
          </mxGeometry>
        </mxCell>
        <mxCell id="OwPhHRN2L67oZQZMtts4-28" value="&amp;lt;&amp;lt;include&amp;gt;&amp;gt;" style="html=1;verticalAlign=bottom;labelBackgroundColor=none;endArrow=open;endFill=0;dashed=1;rounded=1;exitX=1;exitY=0.5;exitDx=0;exitDy=0;strokeColor=#457B9D;fontColor=#1D3557;" parent="1" source="OwPhHRN2L67oZQZMtts4-6" target="OwPhHRN2L67oZQZMtts4-29" edge="1">
          <mxGeometry width="160" relative="1" as="geometry">
            <mxPoint x="580" y="800" as="sourcePoint" />
            <mxPoint x="1110" y="870" as="targetPoint" />
          </mxGeometry>
        </mxCell>
        <mxCell id="OwPhHRN2L67oZQZMtts4-29" value="S&#39;authentifier" style="ellipse;whiteSpace=wrap;html=1;rounded=1;fillColor=#A8DADC;strokeColor=#457B9D;fontColor=#1D3557;" parent="1" vertex="1">
          <mxGeometry x="1120" y="835" width="140" height="70" as="geometry" />
        </mxCell>
        <mxCell id="OwPhHRN2L67oZQZMtts4-31" value="" style="endArrow=none;html=1;rounded=1;labelBackgroundColor=#F1FAEE;strokeColor=#457B9D;fontColor=#1D3557;" parent="1" source="OwPhHRN2L67oZQZMtts4-5" target="OwPhHRN2L67oZQZMtts4-30" edge="1">
          <mxGeometry width="50" height="50" relative="1" as="geometry">
            <mxPoint x="160.00000000000023" y="700" as="sourcePoint" />
            <mxPoint x="363.02250624745875" y="1106.0450124949177" as="targetPoint" />
          </mxGeometry>
        </mxCell>
        <mxCell id="OwPhHRN2L67oZQZMtts4-32" value="" style="endArrow=none;html=1;rounded=1;labelBackgroundColor=#F1FAEE;strokeColor=#457B9D;fontColor=#1D3557;" parent="1" source="OwPhHRN2L67oZQZMtts4-5" edge="1">
          <mxGeometry width="50" height="50" relative="1" as="geometry">
            <mxPoint x="170.00000000000023" y="710" as="sourcePoint" />
            <mxPoint x="584.2565911258962" y="1132.9016748693643" as="targetPoint" />
          </mxGeometry>
        </mxCell>
      </root>
    </mxGraphModel>
  </diagram>
</mxfile>
